#!OML:ASF H:\MichaelJackson\Top Level 1\Subject 1\Session 1\male.ASF
:FULLY-SPECIFIED
:DEGREES
965
root 3.79008 16.4413 26.5629 -188.256 157.746 178.485
lowerback 12.7376 -0.392272 -3.68794
upperback 2.77058 -1.01741 -0.786431
thorax -4.17654 -0.456416 1.4204
lowerneck -7.63582 -5.59865 2.83905
upperneck 3.86077 -7.99252 4.05727
head 2.60717 -3.78706 0.447937
rclavicle -4.6118e-014 0
rhumerus -53.9936 -2.97928 -67.1203
rradius 69.0166
rwrist 6.68193
rhand -6.25053 -24.1221
rfingers 7.12502
rthumb 19.5915 306.845
lclavicle -4.6118e-014 0
lhumerus -44.9454 -22.7933 90.4717
lradius 60.7599
lwrist 18.4695
lhand 0.659541 2.0746
lfingers 7.12502
lthumb 26.2219 30.2831
rfemur -60.1312 -4.98101 19.028
rtibia 38.4306
rfoot 1.878 11.4322
rtoes -9.08992
lfemur -20.2052 -0.0776738 -17.4674
ltibia 43.3018
lfoot -16.9506 -18.1255
ltoes 10.2651
966
root 3.80076 16.4319 26.6057 -188.195 158.29 178.932
lowerback 13.1461 -0.298577 -3.99534
upperback 2.83146 -0.959526 -0.950867
thorax -4.33682 -0.42217 1.41691
lowerneck -7.71814 -5.53246 2.81419
upperneck 3.63537 -7.89588 4.09412
head 2.54866 -3.7436 0.469171
rclavicle 2.16178e-014 7.95139e-015
rhumerus -54.242 -5.17424 -65.8777
rradius 69.7283
rwrist 3.92501
rhand -1.89944 -23.867
rfingers 7.12502
rthumb 23.7698 307.583
lclavicle 2.16178e-014 7.95139e-015
lhumerus -44.8777 -23.621 90.8516
lradius 61.3219
lwrist 18.3451
lhand 1.76479 2.37107
lfingers 7.12502
lthumb 27.2796 30.4178
rfemur -62.563 -8.53963 24.3201
rtibia 39.3484
rfoot 1.30025 15.9321
rtoes -13.3079
lfemur -19.8781 0.827635 -17.7581
ltibia 43.369
lfoot -17.1175 -18.3955
ltoes 10.7635
967
root 3.8087 16.4175 26.6458 -188.194 158.923 179.501
lowerback 13.6231 -0.168121 -4.41553
upperback 2.93178 -0.87643 -1.15882
thorax -4.49296 -0.374493 1.42636
lowerneck -7.77914 -5.45383 2.82169
upperneck 3.35837 -7.78129 4.11683
head 2.46668 -3.69299 0.482844
rclavicle -2.93704e-014 1.59028e-015
rhumerus -54.3537 -7.53559 -64.6599
rradius 70.2768
rwrist 0.916472
rhand 2.16479 -23.8174
rfingers 7.12502
rthumb 27.6622 308.197
lclavicle -2.93704e-014 1.59028e-015
lhumerus -44.8879 -24.4294 91.2046
lradius 61.9794
lwrist 18.1992
lhand 3.01472 2.80511
lfingers 7.12502
lthumb 28.4746 30.658
rfemur -65.2325 -11.3142 29.2123
rtibia 41.7519
rfoot 1.2443 19.4002
rtoes -17.0935
lfemur -19.449 1.74853 -18.1574
ltibia 43.4716
lfoot -17.3391 -18.4972
ltoes 11.0252
968
root 3.81427 16.3998 26.6832 -188.255 159.587 180.173
lowerback 14.1498 -0.022152 -4.93161
upperback 3.07043 -0.795093 -1.40659
thorax -4.63449 -0.32713 1.44672
lowerneck -7.81504 -5.35906 2.85931
upperneck 3.04426 -7.64412 4.122
head 2.36559 -3.63275 0.488254
rclavicle -1.04362e-015 -1.74931e-014
rhumerus -54.3448 -10.0078 -63.5174
rradius 70.6704
rwrist -2.38868
rhand 5.61792 -23.9311
rfingers 7.12502
rthumb 30.9592 308.66
lclavicle -1.04362e-015 -1.74931e-014
lhumerus -44.9758 -25.2191 91.541
lradius 62.6982
lwrist 18.0564
lhand 4.29354 3.34002
lfingers 7.12502
lthumb 29.6959 30.9819
rfemur -67.767 -13.0966 33.0984
rtibia 45.3436
rfoot 1.32599 21.2953
rtoes -20.4567
lfemur -18.9103 2.68843 -18.6519
ltibia 43.5686
lfoot -17.6159 -18.4884
ltoes 11.0492
969
root 3.81802 16.3798 26.719 -188.366 160.198 180.938
lowerback 14.7022 0.111819 -5.53546
upperback 3.23834 -0.751248 -1.68891
thorax -4.75506 -0.297915 1.48483
lowerneck -7.79514 -5.2478 2.90876
upperneck 2.6909 -7.48149 4.12376
head 2.24085 -3.56174 0.493861
rclavicle 1.54555e-014 8.74653e-015
rhumerus -54.2518 -12.5196 -62.5028
rradius 70.936
rwrist -6.05238
rhand 8.04343 -24.0859
rfingers 7.12502
rthumb 33.2683 308.971
lclavicle 1.54555e-014 8.74653e-015
lhumerus -45.1469 -26.006 91.8849
lradius 63.4406
lwrist 17.959
lhand 5.52693 3.95962
lfingers 7.12502
lthumb 30.8724 31.3853
rfemur -69.957 -14.043 35.7659
rtibia 49.799
rfoot 1.29169 21.712
rtoes -23.2991
lfemur -18.2763 3.64043 -19.2377
ltibia 43.6295
lfoot -17.9413 -18.4524
ltoes 10.8886
970
root 3.81987 16.3595 26.7543 -188.508 160.659 181.764
lowerback 15.2566 0.205643 -6.20194
upperback 3.42066 -0.777905 -1.99348
thorax -4.85455 -0.303244 1.54594
lowerneck -7.73663 -5.1299 2.96412
upperneck 2.34451 -7.30875 4.11429
head 2.1113 -3.48633 0.496107
rclavicle -4.26393e-014 2.70347e-014
rhumerus -54.122 -14.994 -61.652
rradius 71.1221
rwrist -10.0663
rhand 9.26327 -24.2636
rfingers 7.12502
rthumb 34.4272 309.049
lclavicle -4.26393e-014 2.70347e-014
lhumerus -45.3952 -26.8099 92.269
lradius 64.1513
lwrist 17.9413
lhand 6.6832 4.60872
lfingers 7.12502
lthumb 31.9741 31.8199
rfemur -71.7852 -14.4457 37.2956
rtibia 54.8301
rfoot 1.45589 21.1175
rtoes -24.9935
lfemur -17.5818 4.58483 -19.8894
ltibia 43.6323
lfoot -18.2861 -18.4831
ltoes 10.6407
